# xmcd
#
# Track frame offsets: 
#        150
#        23187
#        48255
#        67392
#        88692
#        106075
#        125087
#        148277
#        164865
#        185425
#        214597
#        236830
#        257357
#
# Disc length: 3818 seconds
#
# Revision: 6
# Processed by: cddbd v1.5.2PL0 Copyright (c) Steve Scherf et al.
# Submitted via: ExactAudioCopyFreeDBPlugin 1.0
#
DISCID=c50ee80d
DTITLE=Matilde Santing - To Others To One
DYEAR=1999
DGENRE=Blues
TTITLE0=Typical situation
TTITLE1=Innercity blues
TTITLE2=The right place
TTITLE3=Palace moon
TTITLE4=How deep is the ocean
TTITLE5=Too big for me
TTITLE6=Where is my soul
TTITLE7=Wonderful life
TTITLE8=Don't try to tell me
TTITLE9=Ready for the war
TTITLE10=So cold
TTITLE11=Protected
TTITLE12=Dream till the morning
EXTD=
EXTT0=
EXTT1=
EXTT2=
EXTT3=
EXTT4=
EXTT5=
EXTT6=
EXTT7=
EXTT8=
EXTT9=
EXTT10=
EXTT11=
EXTT12=
PLAYORDER=
